<svg aria-hidden="true" style="position: absolute; width: 0; height: 0; overflow: hidden;" version="1.1" xmlns="http://www.w3.org/2000/svg" xmlns:xlink="http://www.w3.org/1999/xlink">
<defs>
<symbol id="icon-Nav" viewBox="0 0 47 32">
<path fill="none" stroke="#fff" style="stroke: var(--color1, #fff)" stroke-linejoin="miter" stroke-linecap="round" stroke-miterlimit="4" stroke-width="2.9091" d="M8.538 5.333h36.553"></path>
<path fill="none" stroke="#fff" style="stroke: var(--color1, #fff)" stroke-linejoin="miter" stroke-linecap="round" stroke-miterlimit="4" stroke-width="2.9091" d="M8.538 24.727h36.553"></path>
<path fill="none" stroke="#fff" style="stroke: var(--color1, #fff)" stroke-linejoin="miter" stroke-linecap="round" stroke-miterlimit="4" stroke-width="2.9091" d="M19.668 15.030h25.423"></path>
</symbol>

<!--icon logo-->

<symbol id="icon-logo" viewBox="0 0 203 32">
<path fill="#fff" style="fill: var(--color1, #fff)" d="M16.534 17.72h-11.202v10.588h-5.332v-25.108h18.146v4.386h-12.813v5.71h11.202v4.424z"></path>
<path fill="#fff" style="fill: var(--color1, #fff)" d="M27.344 24.678c3.031 0 4.565-1.891 4.565-5.672s-1.535-5.634-4.565-5.634c-3.031 0-4.565 1.853-4.565 5.634s1.535 5.672 4.565 5.672zM27.344 28.8c-6.1 0-9.706-4.008-9.706-9.794 0-5.899 3.721-9.794 9.706-9.794 5.908 0 9.591 3.857 9.591 9.794 0 5.899-3.721 9.794-9.591 9.794z"></path>
<path fill="#fff" style="fill: var(--color1, #fff)" d="M50.71 21.578h5.026c-0.537 4.311-4.105 7.222-8.67 7.222-5.141 0-8.67-3.365-8.67-10.021s3.529-9.567 8.824-9.567c4.91 0 8.248 2.76 8.555 7.147h-5.025c-0.269-1.928-1.688-3.063-3.568-3.063-2.11 0-3.836 1.323-3.836 5.37s1.726 6.012 3.683 6.012 3.491-1.096 3.683-3.101z"></path>
<path fill="#fff" style="fill: var(--color1, #fff)" d="M74.205 28.308h-4.719v-2.609c-1.304 2.118-3.261 3.101-5.869 3.101-3.76 0-6.407-2.76-6.407-6.844v-12.252h4.987v11.495c0 2.344 1.074 3.479 3.184 3.479 2.532 0 3.875-1.777 3.875-4.235v-10.739h4.949v18.605z"></path>
<path fill="#fff" style="fill: var(--color1, #fff)" d="M92.542 15.338h-4.795c-0.268-1.815-1.266-2.458-3.529-2.458-1.88 0-2.954 0.454-2.954 1.55s1.036 1.55 3.069 2.118c2.148 0.605 4.182 1.021 5.639 1.588 1.995 0.794 3.107 2.080 3.107 4.5 0 3.857-2.877 6.164-8.248 6.164-5.793 0-9.015-2.685-9.092-6.466h5.141c0 1.74 1.496 2.76 3.913 2.76 1.765 0 3.338-0.529 3.338-1.928 0-1.324-1.419-1.74-3.031-2.118-3.184-0.756-4.949-1.286-6.292-2.118-1.765-1.097-2.378-2.533-2.378-4.197 0-3.139 2.187-5.521 7.941-5.521 5.448 0 7.903 2.118 8.171 6.126z"></path>
<path fill="#fff" style="fill: var(--color1, #fff)" d="M99.704 28.308h-5.332v-5.105h5.332v5.105z"></path>
<path fill="#fff" style="fill: var(--color1, #fff)" d="M118.061 17.72h-11.202v10.588h-5.332v-25.108h18.146v4.386h-12.813v5.71h11.202v4.424z"></path>
<path fill="#fff" style="fill: var(--color1, #fff)" d="M125.249 28.308h-4.987v-18.605h4.68v2.231c1.65-2.496 3.568-2.723 5.601-2.723h0.652v5.029c-0.46-0.076-0.921-0.113-1.381-0.113-3.069 0-4.565 1.513-4.565 4.5v9.68z"></path>
<path fill="#fff" style="fill: var(--color1, #fff)" d="M143.083 21.237l0.038-2.042c-0.499 0.492-1.381 0.756-3.223 1.097-2.839 0.529-3.76 1.324-3.76 2.912 0 1.399 0.844 2.080 2.417 2.080 2.57 0 4.488-1.853 4.527-4.046zM148.108 28.308h-4.642c-0.153-0.454-0.268-1.097-0.307-1.664-1.189 1.286-3.184 2.155-5.716 2.155-4.297 0-6.292-2.080-6.292-5.105 0-5.37 3.644-5.975 8.67-6.655 2.494-0.34 3.184-0.832 3.184-2.118 0-1.21-1.228-1.928-3.184-1.928-2.263 0-3.184 1.097-3.414 2.76h-4.642c0.077-3.857 2.225-6.542 8.286-6.542 5.985 0 8.056 2.647 8.056 7.336v11.76z"></path>
<path fill="#fff" style="fill: var(--color1, #fff)" d="M177.315 28.308h-4.872v-11.269c0-2.231-1.189-3.819-2.954-3.819-1.842 0-3.184 1.702-3.184 3.971v11.117h-4.987v-11.193c0-2.987-0.806-3.744-2.993-3.744-1.995 0-3.031 1.21-3.031 3.63v11.306h-4.987v-18.605h4.68v2.723c1.266-2.458 3.031-3.214 5.524-3.214 2.571 0 3.798 0.794 5.256 2.949 1.035-2.042 2.723-2.949 5.102-2.949 3.798 0 6.445 2.723 6.445 6.201v12.895z"></path>
<path fill="#fff" style="fill: var(--color1, #fff)" d="M183.949 17.191h7.71c-0.077-2.76-1.918-4.084-3.875-4.084-1.994 0-3.643 1.513-3.835 4.084zM196.8 20.292h-13.005c0.154 2.798 1.765 4.613 4.219 4.613 1.611 0 3.030-0.794 3.376-2.080h5.141c-1.15 3.819-4.258 5.975-8.286 5.975-6.291 0-9.437-3.403-9.437-10.134 0-5.748 3.338-9.454 9.13-9.454 5.794 0 8.862 3.706 8.862 11.079z"></path>
</symbol>

<symbol id="icon-star-header" viewBox="0 0 32 32">
<path stroke-linejoin="round" stroke-linecap="round" stroke-miterlimit="4" stroke-width="2.4" d="M16 2.667l4.12 8.347 9.213 1.347-6.667 6.493 1.573 9.173-8.24-4.333-8.24 4.333 1.573-9.173-6.667-6.493 9.213-1.347 4.12-8.347z"></path>
</symbol>

<symbol id="icon-star" viewBox="0 0 20 20" fill="none">
  <path d="M10.0001 1.66667L12.5751 6.88334L18.3334 7.72501L14.1667 11.7833L15.1501 17.5167L10.0001 14.8083L4.85008 17.5167L5.83341 11.7833L1.66675 7.72501L7.42508 6.88334L10.0001 1.66667Z" stroke="#121212" stroke-width="1.5" stroke-linecap="round" stroke-linejoin="round"/>
</symbol>

<symbol id="icon-camera" viewBox="0 0 32 32">
<path d="M21 17c0 1.326-0.527 2.598-1.464 3.536s-2.209 1.464-3.536 1.464-2.598-0.527-3.536-1.464c-0.938-0.938-1.464-2.21-1.464-3.536s0.527-2.598 1.464-3.536c0.938-0.938 2.209-1.464 3.536-1.464s2.598 0.527 3.536 1.464c0.938 0.938 1.464 2.209 1.464 3.536z"></path>
<path d="M4 8c-1.061 0-2.078 0.421-2.828 1.172s-1.172 1.768-1.172 2.828v12c0 1.061 0.421 2.078 1.172 2.828s1.768 1.172 2.828 1.172h24c1.061 0 2.078-0.421 2.828-1.172s1.172-1.768 1.172-2.828v-12c0-1.061-0.421-2.078-1.172-2.828s-1.768-1.172-2.828-1.172h-2.344c-1.061-0-2.078-0.422-2.828-1.172l-1.656-1.656c-0.75-0.75-1.767-1.172-2.828-1.172h-4.688c-1.061 0-2.078 0.422-2.828 1.172l-1.656 1.656c-0.75 0.75-1.767 1.172-2.828 1.172h-2.344zM5 12c-0.265 0-0.52-0.105-0.707-0.293s-0.293-0.442-0.293-0.707c0-0.265 0.105-0.52 0.293-0.707s0.442-0.293 0.707-0.293c0.265 0 0.52 0.105 0.707 0.293s0.293 0.442 0.293 0.707c0 0.265-0.105 0.52-0.293 0.707s-0.442 0.293-0.707 0.293zM23 17c0 1.857-0.737 3.637-2.050 4.95s-3.093 2.050-4.95 2.050c-1.857 0-3.637-0.737-4.95-2.050s-2.050-3.093-2.050-4.95c0-1.857 0.738-3.637 2.050-4.95s3.093-2.050 4.95-2.050c1.857 0 3.637 0.738 4.95 2.050s2.050 3.093 2.050 4.95z"></path>
</symbol>

<symbol id="icon-Arrow-header" viewBox="0 0 58 32">
<path fill="#fff" style="fill: var(--color1, #fff)" d="M40 2.144l17.6 13.856-17.6 13.856v-11.456h-40v-4.8h40v-11.456z"></path>
</symbol>
</defs>
</svg>
