<svg aria-hidden="true" style="position: absolute; width: 0; height: 0; overflow: hidden;" version="1.1" xmlns="http://www.w3.org/2000/svg" xmlns:xlink="http://www.w3.org/1999/xlink">
<defs>
<symbol id="icon-Nav" viewBox="0 0 47 32">
<path fill="none" stroke="#fff" style="stroke: var(--color1, #fff)" stroke-linejoin="miter" stroke-linecap="round" stroke-miterlimit="4" stroke-width="2.9091" d="M8.538 5.333h36.553"></path>
<path fill="none" stroke="#fff" style="stroke: var(--color1, #fff)" stroke-linejoin="miter" stroke-linecap="round" stroke-miterlimit="4" stroke-width="2.9091" d="M8.538 24.727h36.553"></path>
<path fill="none" stroke="#fff" style="stroke: var(--color1, #fff)" stroke-linejoin="miter" stroke-linecap="round" stroke-miterlimit="4" stroke-width="2.9091" d="M19.668 15.030h25.423"></path>
</symbol>
<symbol id="icon-star-header" viewBox="0 0 32 32">
<path stroke-linejoin="round" stroke-linecap="round" stroke-miterlimit="4" stroke-width="2.4" d="M16 2.667l4.12 8.347 9.213 1.347-6.667 6.493 1.573 9.173-8.24-4.333-8.24 4.333 1.573-9.173-6.667-6.493 9.213-1.347 4.12-8.347z"></path>
</symbol>
<symbol id="icon-camera" viewBox="0 0 32 32">
<path fill="#bea69e" style="fill: var(--color2, #bea69e)" opacity="0.4" d="M21 17c0 1.326-0.527 2.598-1.464 3.536s-2.209 1.464-3.536 1.464-2.598-0.527-3.536-1.464c-0.938-0.938-1.464-2.21-1.464-3.536s0.527-2.598 1.464-3.536c0.938-0.938 2.209-1.464 3.536-1.464s2.598 0.527 3.536 1.464c0.938 0.938 1.464 2.209 1.464 3.536z"></path>
<path fill="#bea69e" style="fill: var(--color2, #bea69e)" opacity="0.4" d="M4 8c-1.061 0-2.078 0.421-2.828 1.172s-1.172 1.768-1.172 2.828v12c0 1.061 0.421 2.078 1.172 2.828s1.768 1.172 2.828 1.172h24c1.061 0 2.078-0.421 2.828-1.172s1.172-1.768 1.172-2.828v-12c0-1.061-0.421-2.078-1.172-2.828s-1.768-1.172-2.828-1.172h-2.344c-1.061-0-2.078-0.422-2.828-1.172l-1.656-1.656c-0.75-0.75-1.767-1.172-2.828-1.172h-4.688c-1.061 0-2.078 0.422-2.828 1.172l-1.656 1.656c-0.75 0.75-1.767 1.172-2.828 1.172h-2.344zM5 12c-0.265 0-0.52-0.105-0.707-0.293s-0.293-0.442-0.293-0.707c0-0.265 0.105-0.52 0.293-0.707s0.442-0.293 0.707-0.293c0.265 0 0.52 0.105 0.707 0.293s0.293 0.442 0.293 0.707c0 0.265-0.105 0.52-0.293 0.707s-0.442 0.293-0.707 0.293zM23 17c0 1.857-0.737 3.637-2.050 4.95s-3.093 2.050-4.95 2.050c-1.857 0-3.637-0.737-4.95-2.050s-2.050-3.093-2.050-4.95c0-1.857 0.738-3.637 2.050-4.95s3.093-2.050 4.95-2.050c1.857 0 3.637 0.738 4.95 2.050s2.050 3.093 2.050 4.95z"></path>
</symbol>
<symbol id="icon-Arrow-header" viewBox="0 0 58 32">
<path fill="#fff" style="fill: var(--color1, #fff)" d="M40 2.144l17.6 13.856-17.6 13.856v-11.456h-40v-4.8h40v-11.456z"></path>
</symbol>

<symbol id="focus-frame" viewBox="0 0 127 20">
<path d="M10.334 11.0753H3.33278V17.6928H0V2H11.3411V4.74151H3.33278V8.31019H10.334V11.0753Z" />
<path d="M17.0901 15.4239C18.9842 15.4239 19.9433 14.2422 19.9433 11.8789C19.9433 9.51551 18.9842 8.35746 17.0901 8.35746C15.1959 8.35746 14.2368 9.51551 14.2368 11.8789C14.2368 14.2422 15.1959 15.4239 17.0901 15.4239ZM17.0901 18C13.2778 18 11.0239 15.4948 11.0239 11.8789C11.0239 8.19202 13.3497 5.75776 17.0901 5.75776C20.7825 5.75776 23.0843 8.16839 23.0843 11.8789C23.0843 15.5657 20.7585 18 17.0901 18Z" />
<path d="M31.6935 13.486H34.8345C34.4988 16.1802 32.2689 18 29.4157 18C26.2028 18 23.9969 15.8966 23.9969 11.7371C23.9969 7.57755 26.2028 5.75776 29.5116 5.75776C32.5806 5.75776 34.6666 7.48301 34.8584 10.2245H31.7175C31.5496 9.0192 30.6625 8.31019 29.4876 8.31019C28.1689 8.31019 27.0899 9.13737 27.0899 11.6662C27.0899 14.195 28.1689 15.4239 29.3917 15.4239C30.6145 15.4239 31.5736 14.7386 31.6935 13.486Z" />
<path d="M46.378 17.6928H43.4288V16.062C42.6136 17.3855 41.3908 18 39.7604 18C37.4107 18 35.7562 16.2747 35.7562 13.7223V6.06499H38.8732V13.2496C38.8732 14.7149 39.5446 15.4239 40.8633 15.4239C42.4458 15.4239 43.285 14.3131 43.285 12.777V6.06499H46.378V17.6928Z" />
<path d="M57.8389 9.58641H54.8418C54.674 8.45199 54.0506 8.05022 52.636 8.05022C51.4611 8.05022 50.7897 8.33383 50.7897 9.0192C50.7897 9.70458 51.4371 9.98818 52.7079 10.3427C54.0506 10.7208 55.3214 10.9808 56.2325 11.3353C57.4793 11.8316 58.1746 12.6352 58.1746 14.1477C58.1746 16.5583 56.3764 18 53.0196 18C49.3991 18 47.385 16.322 47.3371 13.9586H50.55C50.55 15.0458 51.4851 15.6839 52.9956 15.6839C54.0986 15.6839 55.0816 15.353 55.0816 14.4786C55.0816 13.6514 54.1945 13.3914 53.1874 13.1551C51.1973 12.6824 50.0944 12.3516 49.2552 11.8316C48.1523 11.1462 47.7687 10.2482 47.7687 9.20827C47.7687 7.24668 49.1353 5.75776 52.7319 5.75776C56.1366 5.75776 57.6711 7.08124 57.8389 9.58641Z" />
<path d="M62.3149 17.6928H58.9822V14.5022H62.3149V17.6928Z" />
<path d="M73.7884 11.0753H66.7872V17.6928H63.4544V2H74.7954V4.74151H66.7872V8.31019H73.7884V11.0753Z" />
<path d="M78.2805 17.6928H75.1635V6.06499H78.0887V7.45938C79.1197 5.89956 80.3186 5.75776 81.5893 5.75776H81.9969V8.90103C81.7092 8.85377 81.4215 8.83013 81.1338 8.83013C79.2156 8.83013 78.2805 9.77548 78.2805 11.6425V17.6928Z" />
<path d="M89.4268 13.2733L89.4508 11.997C89.1391 12.3043 88.5876 12.4697 87.4367 12.6824C85.6624 13.0133 85.087 13.5096 85.087 14.5022C85.087 15.3767 85.6144 15.8021 86.5975 15.8021C88.2039 15.8021 89.4028 14.644 89.4268 13.2733ZM92.5677 17.6928H89.6665C89.5706 17.4092 89.4987 17.0074 89.4747 16.6529C88.7314 17.4564 87.4846 18 85.9022 18C83.2168 18 81.97 16.7001 81.97 14.8095C81.97 11.4535 84.2478 11.0753 87.3887 10.6499C88.9472 10.4372 89.3788 10.13 89.3788 9.32644C89.3788 8.57016 88.6116 8.12112 87.3887 8.12112C85.9741 8.12112 85.3987 8.8065 85.2548 9.84638H82.3536C82.4016 7.43575 83.7443 5.75776 87.5326 5.75776C91.273 5.75776 92.5677 7.41211 92.5677 10.3427V17.6928Z" />
<path d="M110.822 17.6928H107.777V10.6499C107.777 9.25554 107.034 8.26292 105.931 8.26292C104.78 8.26292 103.941 9.32644 103.941 10.7445V17.6928H100.824V10.6972C100.824 8.83013 100.32 8.35746 98.9535 8.35746C97.7067 8.35746 97.0593 9.11374 97.0593 10.6263V17.6928H93.9423V6.06499H96.8675V7.76662C97.6587 6.23043 98.7616 5.75776 100.32 5.75776C101.927 5.75776 102.694 6.25406 103.605 7.60118C104.252 6.32496 105.307 5.75776 106.794 5.75776C109.168 5.75776 110.822 7.45938 110.822 9.63368V17.6928Z"/>
<path d="M114.968 10.7445H119.787C119.739 9.0192 118.588 8.19202 117.365 8.19202C116.119 8.19202 115.088 9.13737 114.968 10.7445ZM123 12.6824H114.872C114.968 14.4313 115.975 15.5657 117.509 15.5657C118.516 15.5657 119.403 15.0694 119.619 14.2659H122.832C122.113 16.6529 120.171 18 117.653 18C113.721 18 111.755 15.873 111.755 11.6662C111.755 8.07386 113.841 5.75776 117.461 5.75776C121.082 5.75776 123 8.07385 123 12.6824Z" />
</symbol>


</defs>
</svg>




